<svg width="220" height="219" viewBox="0 0 220 219" fill="none" xmlns="http://www.w3.org/2000/svg">
<g opacity="0.47">
<path d="M1 13.0664V31.8886L18.5306 16.8386L1 13.0664Z" fill="#E0DBD5"/>
<path d="M1 0.015625V8.49339L22.8148 13.1795L38.1294 0.015625H1Z" fill="#E0DBD5"/>
<path d="M43.7432 0.015625L1 36.6878V38.2433L44.925 0.015625H43.7432Z" fill="#E0DBD5"/>
<path d="M82.8893 0.015625C82.9877 0.307291 83.037 0.579513 83.037 0.83229C83.037 1.45451 82.84 1.96007 82.3476 2.40729C81.412 3.12673 81.3627 3.30173 75.6505 7.56006C74.6656 8.29894 74.3209 8.96005 74.3209 9.60172C74.2717 11.3128 77.2263 12.8684 79.2945 13.7239L87.9613 7.01561L105.246 0.015625H82.8893Z" fill="#E0DBD5"/>
<path d="M58.1182 0.0194444L38.7656 16.9361L67.4252 22.8861L77.4708 15.1278C75.1072 14.2722 70.5768 12.3083 70.4783 9.60554C70.4783 8.73054 71.02 7.79721 72.2511 6.86388C77.9633 2.58611 77.914 2.52777 78.8989 1.73055C78.9481 1.71111 79.2436 1.28333 79.1944 0.816665C79.1944 0.563888 79.1451 0.272222 78.9974 0H58.1182V0.0194444Z" fill="#E0DBD5"/>
<path d="M177.735 53.9169L152.522 44.0586L136.469 63.3863L196.792 62.7836L177.735 53.9169Z" fill="#E0DBD5"/>
<path d="M10.0078 42.1224L31.5764 45.7974L58.4632 24.428L35.6143 19.6836L10.0078 42.1224Z" fill="#E0DBD5"/>
<path d="M86.4888 83.7114C88.2615 77.9753 90.2805 71.792 92.004 66.3281L83.1895 66.4059L79.25 82.9142L86.4888 83.7114Z" fill="#E0DBD5"/>
<path d="M81.0203 58.2756L83.1378 47.8339L78.115 44.7617L72.8459 45.8117L1 62.9228V64.7117L79.8877 63.9339L80.7249 59.8311L65.361 57.6339L66.6413 56.2145L81.0203 58.2756Z" fill="#E0DBD5"/>
<path d="M8.43574 43.4844L1 50.0177V57.426L26.8035 52.2538L30.0043 47.1594L8.43574 43.4844Z" fill="#E0DBD5"/>
<path d="M180.538 52.8886L182.852 53.9775L194.375 44.0025C193.193 43.7303 191.962 43.4191 190.633 43.0886C184.527 41.4942 177.583 39.3942 174.235 36.9636C172.216 35.4858 168.03 32.6275 163.401 29.497L153.011 31.8692L151.189 30.547L161.579 28.1942C160.594 27.5331 159.609 26.8525 158.625 26.1914L129.719 33.0553L148.333 40.3275L160.693 35.4469L163.401 36.5164L151.09 41.3775L157.541 43.8858L166.503 40.5608L169.113 41.6497L160.25 44.9358L180.538 52.8886Z" fill="#E0DBD5"/>
<path d="M202.648 18.8427L197.773 16.8594L161.875 25.376C162.86 26.0566 163.894 26.7371 164.879 27.4177L202.648 18.8427Z" fill="#E0DBD5"/>
<path d="M147.797 15.9649C149.422 17.0538 153.755 19.9316 158.63 23.2371L193.199 15.0316L171.68 6.35938L147.797 15.9649Z" fill="#E0DBD5"/>
<path d="M97.0741 50.6889L97.1234 50.6305C97.1234 50.6305 97.1234 50.6305 97.1726 50.5722C97.1726 50.5139 97.2219 50.4167 97.2711 50.3C97.3203 50.0667 97.4188 49.6972 97.4188 49.2694C97.4188 48.1805 96.9264 46.6444 95.0059 45.3028C94.218 44.7389 92.593 43.65 90.5248 42.25L81.5625 44.0583L87.0777 47.4222L83.7784 63.8916L92.8392 63.7944C95.2521 56.2889 97.0741 50.7278 97.0741 50.7278V50.6889Z" fill="#E0DBD5"/>
<path d="M166.852 4.41006L159.121 6.84061L138.439 0.015625H110.567L91.1162 7.9295L82.2031 14.7934L124.996 31.2239L155.379 24.01C150.947 21.035 147.007 18.41 145.087 17.1073L124.602 25.3128L121.893 24.2628L169.019 5.28506L166.852 4.41006Z" fill="#E0DBD5"/>
<path d="M202.013 43.9694L210.434 36.4639L207.528 36.25L199.305 43.3861C199.748 43.4833 200.142 43.5611 200.536 43.6389C201.077 43.775 201.57 43.8722 202.013 43.9694Z" fill="#E0DBD5"/>
<path d="M218.899 25.4365L205.357 19.9727L166.75 28.7421C171.379 31.8726 175.515 34.731 177.584 36.2476C180.784 38.6199 189.451 41.0698 195.951 42.6254L203.879 35.781L189.894 32.4949L191.864 31.1921L205.504 34.4004L213.63 27.381L217.077 28.0032L209.198 34.8282L212.054 35.0421L218.899 28.9365V25.4365Z" fill="#E0DBD5"/>
<path d="M218.899 32.6445L213.039 37.8362L218.899 38.8667V32.6445Z" fill="#E0DBD5"/>
<path d="M200.489 45.3451C199.75 45.1895 198.814 44.9951 197.731 44.7617L185.617 55.2617L188.079 56.4089L200.489 45.3451Z" fill="#E0DBD5"/>
<path d="M150.454 87.8547L154.886 79.2797L144.988 78.8324L139.965 85.4824V85.5019L136.321 85.0741V85.0352L142.132 77.1797H142.23L147.303 70.4908L147.007 65.8241L146.712 65.8047L144.151 65.8241L142.871 70.238L138.045 76.6936L134.401 76.2658L139.128 69.9269L140.31 65.8436L111.749 66.1158L107.711 85.2491C117.954 85.9297 130.855 86.7463 143.166 87.4074C145.53 87.5435 147.992 87.6991 150.454 87.8547Z" fill="#E0DBD5"/>
<path d="M107.905 66.1719L99.681 66.2497C99.2378 67.6885 98.7453 69.2052 98.2529 70.7413C96.8249 75.1746 95.3476 79.8802 93.9688 84.3135C96.5786 84.508 99.9764 84.7413 103.965 85.0135L107.905 66.1719Z" fill="#E0DBD5"/>
<path d="M69.7946 43.6089L86.5373 39.6228C84.0259 37.9506 81.2683 36.1228 78.6092 34.3534C72.9462 30.5812 67.6279 27.0812 65.9044 25.9728L61.8665 25.1367L35.0781 46.37L46.3548 48.295L69.7946 43.6089Z" fill="#E0DBD5"/>
<path d="M125.684 104.105L122.68 111.222L147.548 112.292L150.059 107.197L125.979 104.125L125.684 104.105Z" fill="#E0DBD5"/>
<path d="M149.124 114.251L146.711 119.715L155.673 121.426L165.817 112.793L168.132 113.221L157.988 121.854L166.261 123.448L175.961 114.971L178.276 115.379L168.526 123.876L183.643 126.773L185.121 110.518L153.359 105.793L149.124 114.251Z" fill="#E0DBD5"/>
<path d="M121.598 32.027L80.3813 16.1992L70.8281 23.5881L71.3698 23.7048L71.9115 24.0742C71.9115 24.0936 84.9117 32.6297 93.874 38.6186L121.598 32.027Z" fill="#E0DBD5"/>
<path d="M196.836 79.5074L208.507 80.9074L196.885 79.4102L196.836 79.5074Z" fill="#E0DBD5"/>
<path d="M178.375 0.915885C187.485 4.72699 197.334 8.18809 207.182 11.727L207.232 11.7075L178.917 0.449219C178.867 0.526996 178.818 0.58533 178.769 0.643663C178.67 0.740885 178.523 0.838107 178.375 0.915885Z" fill="#E0DBD5"/>
<path d="M94.067 115.067L92.8359 125.645L99.2868 118.665L119.28 122.554L122.333 116.448L94.7564 113.551L94.067 115.067Z" fill="#E0DBD5"/>
<path d="M207.426 68.3253L218.899 69.8226V65.0781L208.41 65.1948L198.414 77.5614L207.426 68.3253Z" fill="#E0DBD5"/>
<path d="M218.899 94.6381V90.127L216.437 89.8159L218.899 86.8215V83.7493L195.656 80.9493L189.55 88.5132L185.906 88.0465L186.103 87.7937L193.145 79.0632H193.194L204.372 65.2188L190.141 65.3549L175.269 86.4715L171.576 86.0632L186.152 65.4132L166.159 65.6076L161.924 75.6215L158.182 75.3687L162.269 65.6465L150.845 65.7632L151.14 70.7021L146.117 77.3715L159.462 77.9937L154.242 88.1048C178.47 89.7965 206.982 92.8493 218.899 94.6381Z" fill="#E0DBD5"/>
<path d="M83.875 142.932L92.0001 144.468V144.449L92.0986 144.39C93.3297 143.515 94.7085 142.835 96.1858 142.29L85.1553 140.832L83.875 142.932Z" fill="#E0DBD5"/>
<path d="M218.901 58.976L217.079 58.8398L216.291 59.6954L216.094 62.6121L218.901 62.5732V58.976Z" fill="#E0DBD5"/>
<path d="M132.435 63.4304L149.473 42.8971L126.279 33.8555L97.0781 40.7777C99.1463 42.1582 100.771 43.2666 101.609 43.8499C104.415 45.8332 104.957 47.8749 104.957 49.2749C104.957 50.2666 104.662 50.9471 104.563 51.161C104.514 51.336 104.218 52.1527 103.824 53.4554L114.067 55.0304L112.245 63.6054L132.435 63.4304Z" fill="#E0DBD5"/>
<path d="M218.899 40.5099L211.513 39.2266L190.781 57.6793L201.713 62.7543L212.251 62.6376L212.498 59.4099L216.437 55.171L218.899 55.521V40.5099Z" fill="#E0DBD5"/>
<path d="M31.3359 51.3396L41.9725 49.2007L33.5519 47.7812L31.3359 51.3396Z" fill="#E0DBD5"/>
<path d="M100.523 63.7423L108.452 63.6645L110.077 56.0423L103.38 55.0117C102.641 57.2284 101.656 60.2617 100.523 63.7423Z" fill="#E0DBD5"/>
<path d="M218.899 115.561L187.63 110.914L184.773 142.472L189.501 143.172L201.615 129.483L205.209 129.989L193.096 143.678L198.168 144.417L218.899 119.664V115.561Z" fill="#E0DBD5"/>
<path d="M218.899 11.8711L217.422 12.2211L218.899 12.8044V11.8711Z" fill="#E0DBD5"/>
<path d="M176.406 149.726L208.168 154.12L214.028 148.851L182.857 144.34L176.406 149.726Z" fill="#E0DBD5"/>
<path d="M218.904 149.566L217.623 149.371L211.812 154.621L218.904 155.613V149.566Z" fill="#E0DBD5"/>
<path d="M218.905 165.975V162.455L216.148 162.105C215.409 163.311 214.424 164.614 213.242 165.955H218.905V165.975Z" fill="#E0DBD5"/>
<path d="M169.805 155.28L202.404 159.344L207.18 155.047L175.32 150.633L169.805 155.28Z" fill="#E0DBD5"/>
<path d="M174.039 165.975L162.319 163.855L163.944 162.494L162.023 162.105L157.641 165.975H174.039Z" fill="#E0DBD5"/>
<path d="M209.246 165.981C210.625 164.444 211.758 162.986 212.546 161.683L205.061 160.75L199.25 166H209.246V165.981Z" fill="#E0DBD5"/>
<path d="M4.15157 165.973L1 165.156V165.973H4.15157Z" fill="#E0DBD5"/>
<path d="M137.899 148.164L135.93 150.4L167.347 154.95L172.911 150.303L167.593 149.545L164.835 151.82L137.899 148.164Z" fill="#E0DBD5"/>
<path d="M28.9716 165.982L26.8542 165.496C26.6572 165.652 26.5095 165.827 26.3125 165.982H28.9716Z" fill="#E0DBD5"/>
<path d="M87.125 137.858L91.5077 132.375L90.6705 132.277L87.125 137.858Z" fill="#E0DBD5"/>
<path d="M165.278 161.356L188.324 165.984H195.021L201.374 160.286L168.725 156.203L163.062 161.2L164.983 161.589L165.278 161.356Z" fill="#E0DBD5"/>
<path d="M136.566 165.985L124.157 163.594L122.039 165.985H136.566Z" fill="#E0DBD5"/>
<path d="M154.888 165.978L166.313 155.867L135.093 151.355L125.047 162.653L142.43 165.997H154.888V165.978ZM140.706 153.669L153.411 155.672L149.176 159.697L136.028 157.189L140.706 153.669Z" fill="#E0DBD5"/>
<path d="M81.5628 165.985L77.9188 165.246L77.8203 165.985H81.5628Z" fill="#E0DBD5"/>
<path d="M119.328 165.979L121.84 163.16L80.3769 155.188L78.0625 164.132L87.074 165.979H119.328Z" fill="#E0DBD5"/>
<path d="M148.875 129.358L142.571 128.23L134.102 135.483L143.507 136.825L148.875 129.358Z" fill="#E0DBD5"/>
<path d="M99.9315 130.629L107.81 121.451L100.719 120.07L93.1359 128.237L92.545 128.14L92.3973 129.637L91.6094 130.823L92.6927 130.94L93.6776 129.734L99.9315 130.629Z" fill="#E0DBD5"/>
<path d="M218.899 156.686L210.774 155.559L206.047 159.817L218.899 161.411V156.686Z" fill="#E0DBD5"/>
<path d="M91.267 146.017L83.2403 144.5L80.6797 154.144L95.7974 157.042L100.574 153.114L102.888 153.542L98.1118 157.469L122.733 162.194L132.73 150.994L120.813 149.264L121.699 148.331L133.616 150.061L135.586 147.844L123.768 146.231L115.741 153.969L111.506 159.803L109.044 159.531L112.885 154.222C103.479 153.581 97.8163 152.744 94.3693 151.831C90.7746 150.878 89.642 149.789 89.6912 148.972C89.6912 148.389 90.1836 147.981 90.4299 147.806L91.267 146.017Z" fill="#E0DBD5"/>
<path d="M62.1602 87.7388C46.2546 86.611 31.4816 84.2388 15.773 82.8971C10.8487 82.4694 5.92433 82.0999 1 81.7305V92.211C9.22363 93.2999 16.1177 95.2054 16.1177 95.2054C23.6519 103.528 13.8033 107.358 1 108.583V124.139L60.8306 127.075L60.7321 127.386C64.5238 124.003 66.8383 121.961 66.8383 121.961C66.8383 121.961 67.5277 121.339 68.6603 120.153C69.7929 118.986 71.3687 117.275 73.0429 115.194C76.3915 111.033 80.1339 105.355 81.759 99.3082C82.4484 96.8193 83.4825 93.3777 84.6643 89.4499C77.1794 88.8666 69.6944 88.2638 62.1602 87.7388Z" fill="#E0DBD5"/>
<path d="M32.2235 127.168L31.0417 140.021H30.5L45.1745 141.343C50.6897 136.385 55.6633 131.912 59.455 128.529L32.2235 127.168Z" fill="#E0DBD5"/>
<path d="M99.5311 102.66L95.1484 112.557L126.713 115.863L144.342 119.246L146.657 114.074L147.051 113.277L119.721 112.11L123.168 103.963L114.206 103.477L110.168 110.924L107.656 110.71L111.694 103.321L99.5311 102.66Z" fill="#E0DBD5"/>
<path d="M1 67.2232V74.5148L75.5051 82.5259L79.3461 66.4648L1 67.2232Z" fill="#E0DBD5"/>
<path d="M50.5387 0.015625L1 43.1044V45.1267L52.5085 0.015625H50.5387Z" fill="#E0DBD5"/>
<path d="M1 76.0664V79.4692C9.32211 80.1108 17.6935 80.6747 25.9171 81.4719C40.8378 82.9108 54.9706 85.0692 70.1376 86.1192C75.2096 86.4692 80.2817 86.8581 85.3537 87.2275C85.5507 86.5664 85.7477 85.8858 85.9939 85.2053L1 76.0664Z" fill="#E0DBD5"/>
<path d="M75.3116 165.977L75.4101 164.713L44.7808 158.452L45.9627 157.558L75.6564 163.624L80.7777 144.102L53.2014 141.613C50.69 143.888 48.0309 146.26 45.3225 148.71C39.7088 153.766 33.8981 159.074 28.3828 164.11L36.4587 165.997H75.3116V165.977Z" fill="#E0DBD5"/>
<path d="M173.99 149.391L181.426 143.169L176.058 142.508L168.672 148.633L173.99 149.391Z" fill="#E0DBD5"/>
<path d="M143.359 127.268L149.663 128.415L154.735 122.368L146.265 120.734L143.359 127.268Z" fill="#E0DBD5"/>
<path d="M124.8 116.703L121.648 123.023L141.001 126.814L143.906 120.281L125.834 116.82L124.8 116.703Z" fill="#E0DBD5"/>
<path d="M92.7394 148.166L92.5916 148.244C92.5916 148.244 92.5916 148.244 92.5424 148.263C92.4931 148.302 92.4439 148.341 92.3947 148.399C92.2469 148.535 92.1484 148.71 92.1484 148.944C92.1977 149.43 92.6409 150.13 95.7432 150.985C98.747 151.783 104.164 152.638 113.668 153.26L116.228 150.81L115.736 151.141L95.3985 148.127L97.1712 143.324C96.2356 143.713 95.3 144.199 94.4629 144.783L92.7394 148.166Z" fill="#E0DBD5"/>
<path d="M140.309 127.784L121.104 124.051L116.672 133.015L131.691 135.154L140.309 127.784Z" fill="#E0DBD5"/>
<path d="M118.793 123.59L110.077 121.898L102.297 130.979L114.263 132.671L118.793 123.59Z" fill="#E0DBD5"/>
<path d="M182.857 135.545L151.243 129.789L145.875 137.158L152.818 138.15L182.315 141.689L182.857 135.545Z" fill="#E0DBD5"/>
<path d="M183.547 127.659L183.35 127.834L167.592 124.82L162.273 130.693L182.956 134.445L183.547 127.659Z" fill="#E0DBD5"/>
<path d="M151.977 128.821L159.954 130.279L165.321 124.387L157.049 122.812L151.977 128.821Z" fill="#E0DBD5"/>
<path d="M33.0574 152.268C36.6521 149.021 40.1976 145.793 43.5954 142.741L1 138.891V150.966L18.4321 153.727L17.0041 155.127L1 152.579V154.466L25.9171 158.743C27.7883 157.052 29.6596 155.341 31.5308 153.649L11.735 149.682L13.4585 148.341L33.0574 152.268Z" fill="#E0DBD5"/>
<path d="M106.432 90.9177C101.705 90.6455 96.9775 90.3149 92.2502 89.9844C91.0683 93.8149 90.0835 97.1788 89.3941 99.6094C85.8978 112.268 73.9317 123.059 73.8332 123.137C73.8332 123.137 71.765 124.965 68.3672 128.018L89.1971 130.507L89.8373 129.476L91.5115 114.932L101.262 92.6483L103.773 92.8233L99.9321 101.651L112.243 102.332L112.292 102.195L115.247 93.1733L117.758 93.3094L114.804 102.351L114.754 102.487L123.569 102.973L127.164 94.5149L129.675 94.6705L126.13 103.109L126.573 103.129L150.554 106.182L155.528 96.1482L158.039 96.3427L153.854 104.762L185.271 109.448L188.373 98.0538C177.737 96.9844 167.346 95.6233 156.71 94.4566C140.164 92.6677 123.323 91.9094 106.432 90.9177Z" fill="#E0DBD5"/>
<path d="M218.898 100.506C213.185 100.078 207.473 99.6503 201.761 99.2419C198.068 98.9891 194.424 98.6586 190.829 98.3086L187.727 109.761V109.82L218.898 114.467V100.506Z" fill="#E0DBD5"/>
<path d="M218.902 124.465L201.766 144.94L215.849 146.981L218.902 143.637V124.465Z" fill="#E0DBD5"/>
<path d="M218.904 96.2424C218.658 96.2035 218.412 96.1646 218.166 96.1258C205.412 94.1619 168.479 90.2535 142.676 88.8924C123.717 87.8813 103.33 86.4813 93.5308 85.8008C93.3338 86.4813 93.1368 87.1424 92.8906 87.8036C101.853 88.4647 110.815 89.1063 119.827 89.5924C134.895 90.3897 150.062 91.2063 164.687 92.8785C180.544 94.6869 195.957 96.6508 212.256 97.8174C214.472 97.973 216.688 98.148 218.904 98.3035V96.2424Z" fill="#E0DBD5"/>
<path d="M190.441 0.015625H190.096L188.914 0.871179L212.797 10.3795L218.903 8.96006V6.56839L211.221 8.22117L190.441 0.015625Z" fill="#E0DBD5"/>
<path d="M1 125.648V137.335L27.2467 139.707L28.4285 126.99L1 125.648Z" fill="#E0DBD5"/>
<path d="M65.2623 130.803C62.3077 133.466 58.7129 136.675 54.7734 140.214L81.4633 142.625L88.2589 132.008L66.7888 129.441C66.2964 129.869 65.8039 130.316 65.2623 130.803Z" fill="#E0DBD5"/>
<path d="M18.0382 165.972C20.1064 164.066 22.2731 162.102 24.4398 160.119L13.0646 158.155L7.69709 163.347L4.15157 162.783L9.46984 157.572L1 156.094V163.347L11.0456 165.972H18.0382Z" fill="#E0DBD5"/>
<path d="M138.438 0.015625L159.12 6.84061L166.851 4.41006L155.919 0.015625H138.438Z" fill="#DCD8BA"/>
<path d="M190.438 0.015625L211.218 8.22117L218.9 6.56839V0.540624L217.915 0.015625H190.438Z" fill="#CCC2B8"/>
<path d="M145.773 137.312L152.815 138.148L145.872 137.156L145.773 137.312Z" fill="#CCC2B8"/>
<path d="M85.2031 140.837L96.2336 142.296C99.7791 141.012 103.916 140.584 107.51 140.604C113.026 140.604 117.507 141.498 118.295 141.654L138.435 144.454L142.375 138.484L91.5063 132.379L87.0744 137.843L85.2031 140.837Z" fill="#CCC2B8"/>
<path d="M137.898 148.161L164.835 151.817L167.592 149.542L140.065 145.73L137.898 148.161Z" fill="#CCC2B8"/>
<path d="M131.694 135.155L116.675 133.016L116.281 133.774L131.202 135.563L131.694 135.155Z" fill="#CCC2B8"/>
<path d="M168.674 148.636L176.061 142.511L144.84 138.777L140.852 144.786L168.674 148.636Z" fill="#CCC2B8"/>
<path d="M143.513 136.834L134.107 135.492L133.664 135.862L143.365 137.028L143.513 136.834Z" fill="#CCC2B8"/>
<path d="M99.9263 130.633L93.6724 129.738L92.6875 130.944L98.9906 131.702L99.9263 130.633Z" fill="#CCC2B8"/>
<path d="M137.698 145.403L126.126 143.789L126.175 143.809L123.664 146.239L135.482 147.833L137.698 145.403Z" fill="#CCC2B8"/>
<path d="M115.687 151.16L116.179 150.83L123.812 143.48L117.312 142.585L117.213 142.547C117.213 142.547 116.13 142.313 114.357 142.08C112.584 141.827 110.122 141.594 107.512 141.594C104.065 141.613 100.372 141.983 97.1712 143.344L95.3984 148.147L115.687 151.16Z" fill="#CCC2B8"/>
<path d="M114.256 132.664L102.29 130.973L101.453 131.984L113.862 133.481L114.256 132.664Z" fill="#CCC2B8"/>
<path d="M153.406 155.671L140.702 153.668L136.023 157.168L149.171 159.676L153.406 155.671Z" fill="#CCC2B8"/>
<path d="M188.326 165.979L165.28 161.352L164.984 161.585L187.144 165.979H188.326Z" fill="#CCC2B8"/>
<path d="M181.476 165.981L163.945 162.5L162.32 163.861L174.04 165.981H181.476Z" fill="#CCC2B8"/>
<path d="M218.902 69.8253L207.429 68.3281L198.417 77.5642L196.891 79.4114L208.512 80.9087L218.902 82.1725V69.8253Z" fill="#B4CD9B"/>
<path d="M16.1177 95.1702C16.1177 95.1702 9.17438 93.2647 1 92.1758V108.548C13.8033 107.342 23.6519 103.512 16.1177 95.1702Z" fill="#B4CD9B"/>
<path d="M70.1844 86.1383C54.9683 85.0883 40.8847 82.9105 25.964 81.4911C17.6911 80.6938 9.36899 80.1299 1.04688 79.4883V81.7244C5.9712 82.0938 10.8955 82.4633 15.8199 82.8911C31.5285 84.2522 46.3014 86.6049 62.207 87.7327C69.7412 88.2772 77.2262 88.8605 84.7604 89.4438C84.9574 88.7244 85.2036 88.0049 85.4498 87.2466C80.2793 86.8577 75.2565 86.4883 70.1844 86.1383Z" fill="#8BBBB9"/>
<path d="M218.905 16.4168L211.764 13.5391L203.344 15.5418L218.905 21.8418V16.4168Z" fill="#8095B2"/>
<path d="M178.378 0.910068C178.575 0.83229 178.723 0.735068 178.772 0.657291C178.821 0.579513 178.87 0.52118 178.92 0.462846L177.836 0.015625H164.836L198.765 13.7045L207.136 11.7212C197.287 8.20172 187.439 4.72117 178.378 0.910068Z" fill="#8BBBB9"/>
<path d="M218.906 98.3359C216.69 98.1804 214.474 98.0054 212.258 97.8498C195.959 96.6831 180.595 94.7193 164.689 92.9109C150.064 91.2387 134.897 90.422 119.829 89.6248C110.768 89.1387 101.806 88.5165 92.8925 87.8359C92.6463 88.5748 92.4493 89.3137 92.2031 90.0137C96.9305 90.3637 101.658 90.6748 106.385 90.947C123.276 91.9193 140.166 92.697 156.663 94.5054C167.299 95.672 177.689 97.0137 188.326 98.1026L188.375 98.0054L190.887 98.1026L190.837 98.3554C194.432 98.7054 198.076 99.0165 201.769 99.2887C207.482 99.697 213.194 100.125 218.906 100.553V98.3359Z" fill="#8BBBB9"/>
<path d="M44.925 0.015625L1 38.2433V43.1044L50.5387 0.015625H44.925Z" fill="white"/>
<path d="M18.4321 153.707L1 150.965V152.579L17.0041 155.107L18.4321 153.707Z" fill="white"/>
<path d="M11.0456 165.965L1 163.34V165.148L4.15157 165.965H11.0456Z" fill="white"/>
<path d="M188.912 0.871179L190.094 0.015625H177.833L178.916 0.443402L207.182 11.7017L207.132 11.7212L198.761 13.7045L164.832 0.015625H155.919L166.851 4.41006L169.018 5.28506L121.892 24.2628L124.601 25.3128L145.086 17.1073C147.006 18.3906 150.946 21.035 155.378 24.01L124.995 31.2239L82.2022 14.7934L91.1152 7.9295L110.566 0.015625H105.248L87.9636 7.03506L79.2968 13.7434C77.2286 12.8878 74.2248 11.3323 74.3232 9.62116C74.3232 8.9795 74.6679 8.31839 75.6528 7.5795C81.365 3.32117 81.4143 3.14617 82.3499 2.42673C82.8916 1.97951 83.0393 1.47396 83.0393 0.851735C83.0393 0.579513 82.9901 0.307291 82.8916 0.0350694H79.0506C79.1983 0.307291 79.2476 0.598957 79.2476 0.851735C79.2476 1.29896 79.0014 1.72673 78.9521 1.76562C77.9672 2.5434 78.0165 2.62118 72.3043 6.89895C71.0239 7.83228 70.5315 8.76561 70.5315 9.64061C70.63 12.3434 75.1604 14.3073 77.5241 15.1628L67.4784 22.9211L38.7696 16.9323L58.1222 0.015625H52.5577L1 45.1267V50.0072L8.43574 43.4739L30.0043 47.1489L26.8035 52.2239L1 57.4155V62.8988L72.8459 45.7878L78.0657 44.7378L83.0885 47.81L81.0203 58.2516L66.6413 56.21L65.361 57.6294L80.7249 59.8266L79.8877 63.9294L1 64.7072V67.2155L79.3461 66.4377L75.5051 82.4988L1 74.5072V76.0627L85.9939 85.2016C85.7969 85.8821 85.5507 86.5627 85.3537 87.2238C85.1075 87.9627 84.9105 88.7016 84.6643 89.421C83.4825 93.3293 82.4484 96.7904 81.759 99.2793C80.0847 105.327 76.3422 111.024 73.0429 115.165C71.3686 117.246 69.7929 118.938 68.6603 120.124C67.5277 121.29 66.8383 121.932 66.8383 121.932C66.8383 121.932 64.5238 123.993 60.7321 127.357L60.8306 127.046L1 124.129V125.646L28.4285 126.988L27.2959 139.704L1 137.332V138.868L43.6447 142.738C40.2469 145.79 36.7014 149.018 33.1066 152.265L13.5078 148.357L11.7843 149.699L31.5308 153.646C29.6596 155.338 27.7883 157.049 25.9171 158.74L1 154.463V156.096L9.51909 157.554L4.20081 162.785L7.74633 163.349L13.0646 158.176L24.4398 160.14C22.2731 162.124 20.1064 164.088 18.0382 165.993H26.3603C26.5573 165.838 26.705 165.663 26.902 165.507L29.0194 165.993H36.4552L28.3793 164.107C33.8945 159.071 39.7545 153.763 45.319 148.707C48.0273 146.257 50.6865 143.885 53.1979 141.61L80.7741 144.099L75.6528 163.64L45.9591 157.574L44.7773 158.468L75.4066 164.729L75.3081 165.993H77.8688L77.918 165.254L81.562 165.993H87.0773L78.0165 164.146L80.3802 155.201L121.843 163.154L119.332 165.974H122.04L124.157 163.582L136.567 165.974H142.377L124.995 162.629L135.04 151.332L166.26 155.843L154.836 165.954H157.643L162.026 162.085L163.897 162.454L181.427 165.935H187.14L164.98 161.579L163.06 161.19L168.723 156.193L201.371 160.276L195.019 165.974H199.204L205.015 160.724L212.5 161.657C211.712 162.979 210.579 164.438 209.201 165.954H213.239C214.42 164.613 215.405 163.31 216.144 162.104L218.902 162.454V161.404L206.049 159.79L210.776 155.532L218.902 156.66V155.59L211.81 154.599L217.621 149.349L218.902 149.543V143.613L215.848 146.957L201.716 144.915L218.902 124.46V119.657L198.17 144.41L193.098 143.671L205.212 129.982L201.617 129.496L189.553 143.165L184.825 142.485L187.681 110.907L218.951 115.574V114.504L187.78 109.857V109.799L190.882 98.346L190.931 98.0932L188.42 97.996L188.371 98.0932L185.268 109.488L153.851 104.802L158.037 96.3821L155.525 96.1877L150.552 106.221L126.57 103.149L126.127 103.129L129.673 94.6905L127.161 94.5349L123.567 102.993L114.752 102.488L114.801 102.371L117.756 93.3293L115.244 93.1932L112.29 102.215L112.241 102.352L99.9297 101.671L103.771 92.8432L101.259 92.6682L91.5091 114.952L89.8349 129.496L89.1947 130.527L68.3648 128.038C71.7626 125.004 73.8308 123.157 73.8308 123.157C73.9293 123.079 85.8954 112.268 89.3917 99.6293C90.0811 97.1988 91.066 93.8349 92.2478 90.0043C92.4448 89.2849 92.691 88.5655 92.9372 87.8266C93.1342 87.1655 93.3311 86.5044 93.5774 85.8238C103.377 86.5238 123.813 87.9238 142.722 88.9155C168.526 90.2766 205.458 94.1849 218.212 96.1488C218.458 96.1877 218.705 96.2266 218.951 96.2654V94.6516C207.034 92.8627 178.522 89.8099 154.294 88.1182L159.563 77.9877L146.218 77.3655L151.241 70.6961L150.946 65.7572L162.37 65.6405L158.283 75.3627L162.026 75.6155L166.26 65.6016L186.253 65.4072L171.677 86.0766L175.37 86.4849L190.242 65.3683L204.473 65.2322L193.295 79.0766H193.246L186.204 87.8071L186.007 88.0599L189.651 88.5266L195.757 80.9627L219 83.7627V82.1877L208.61 80.9433L196.939 79.5433L197.038 79.446L198.515 77.5988L208.511 65.2127L219 65.1155V62.6072L216.193 62.6266L216.439 59.7294L217.227 58.8739L219 59.01V57.4739L218.508 57.435L219 56.9294V55.5489L216.538 55.1989L212.598 59.4572L212.254 62.6266L201.716 62.7238L190.833 57.6488L211.564 39.1961L218.951 40.4794V38.8267L213.14 37.8156L218.951 32.6239V28.91L212.106 35.0156L209.25 34.8017L217.129 27.9767L213.682 27.3545L205.557 34.3739L191.916 31.1656L189.946 32.4683L203.932 35.7544L196.003 42.6183C189.503 41.0628 180.836 38.5933 177.636 36.2406C175.567 34.7433 171.382 31.8656 166.802 28.735L205.409 19.9656L218.902 25.4295V21.8323L203.341 15.5323L211.761 13.5295L218.852 16.3878V12.81L217.375 12.2073L218.852 11.8573V8.96005L212.746 10.3795L188.912 0.871179ZM45.1712 141.318L30.4967 139.996H31.0384L32.2202 127.163L59.4518 128.504C55.66 131.907 50.6865 136.36 45.1712 141.318ZM133.514 150.049L121.597 148.318L120.71 149.251L132.627 150.982L122.631 162.182L98.0093 157.457L102.786 153.529L100.471 153.101L95.6948 157.029L80.5771 154.132L83.1378 144.488L91.1644 146.004L90.2781 147.793C90.0319 147.968 89.5394 148.396 89.5394 148.96C89.4902 149.776 90.6228 150.885 94.2175 151.818C97.6646 152.732 103.278 153.588 112.733 154.21L108.892 159.518L111.354 159.79L115.589 153.957L123.616 146.218L126.127 143.788L126.029 143.768L137.601 145.382L135.434 147.813L133.514 150.049ZM92.1493 148.96C92.1493 148.726 92.297 148.551 92.3955 148.415C92.4448 148.357 92.494 148.299 92.5433 148.279C92.5925 148.26 92.5925 148.26 92.5925 148.26L92.7402 148.182L94.4638 144.818C95.3009 144.235 96.2365 143.749 97.1721 143.36C100.373 141.999 104.066 141.629 107.513 141.61C110.123 141.61 112.585 141.843 114.358 142.096C116.131 142.329 117.214 142.582 117.214 142.563L117.313 142.582L123.813 143.476L116.18 150.826L113.619 153.276C104.165 152.654 98.6987 151.799 95.6948 151.001C92.6417 150.165 92.1493 149.446 92.1493 148.96ZM167.344 154.949L135.927 150.399L137.896 148.163L140.063 145.732L167.541 149.543L172.908 150.282L167.344 154.949ZM116.672 133.015L121.104 124.052L140.26 127.804L131.692 135.154L131.199 135.563L116.279 133.774L116.672 133.015ZM114.26 132.665L113.866 133.482L101.456 131.985L102.343 130.954L110.123 121.874L118.79 123.565L114.26 132.665ZM162.272 130.701L167.59 124.829L183.348 127.843L183.545 127.668L182.954 134.435L162.272 130.701ZM182.855 135.543L182.314 141.688L152.866 138.149L145.824 137.313L145.923 137.176L151.241 129.807L182.855 135.543ZM159.957 130.274L151.98 128.815L157.052 122.788L165.276 124.363L159.957 130.274ZM149.665 128.407L143.412 127.26L146.317 120.727L154.787 122.36L149.665 128.407ZM140.999 126.813L121.646 123.021L124.798 116.702L125.881 116.818L143.953 120.279L140.999 126.813ZM134.105 135.485L142.574 128.213L148.878 129.36L143.461 136.807L143.313 137.001L133.612 135.835L134.105 135.485ZM144.84 138.771L176.06 142.524L181.427 143.165L173.992 149.388L168.673 148.649L140.851 144.779L144.84 138.771ZM202.405 159.343L169.806 155.26L175.37 150.613L207.182 155.026L202.405 159.343ZM214.026 148.843L208.166 154.113L176.405 149.699L182.806 144.313L214.026 148.843ZM153.359 105.793L185.121 110.518L183.643 126.774L168.526 123.877L178.276 115.379L175.961 114.971L166.26 123.449L157.988 121.854L168.132 113.202L165.817 112.774L155.673 121.407L146.711 119.696L149.124 114.252L153.359 105.793ZM125.684 104.102L126.029 104.121L150.109 107.193L147.548 112.307L122.68 111.238L125.684 104.102ZM99.5358 102.663L111.748 103.343L107.71 110.732L110.172 110.946L114.26 103.479L123.173 103.985L119.726 112.132L147.056 113.318L146.662 114.115L144.347 119.288L126.718 115.904L95.1531 112.579L99.5358 102.663ZM94.0698 115.068L94.7592 113.552L122.335 116.449L119.282 122.554L99.3388 118.646L92.888 125.627L94.0698 115.068ZM92.3955 129.632L92.5925 128.135L93.1834 128.213L100.767 120.046L107.809 121.427L99.9297 130.604L98.9941 131.674L92.691 130.915L91.6076 130.779L92.3955 129.632ZM90.672 132.277L91.5091 132.374L142.377 138.479L138.438 144.449L118.297 141.649C117.51 141.493 113.028 140.599 107.513 140.599C103.869 140.579 99.782 141.007 96.2365 142.29C94.7592 142.835 93.3312 143.515 92.1493 144.39L92.0508 144.449V144.468L83.9257 142.932L85.2553 140.832L87.1757 137.857L90.672 132.277ZM88.2591 131.985L81.4635 142.601L54.7737 140.21C58.7131 136.671 62.3079 133.463 65.2625 130.799C65.8042 130.313 66.2966 129.865 66.789 129.418L88.2591 131.985ZM147.794 15.96L171.677 6.3545L193.197 15.0267L158.628 23.2322C153.703 19.9267 149.419 17.0489 147.794 15.96ZM126.275 33.8295L149.468 42.8711L132.43 63.4044L112.29 63.5988L114.112 55.0239L103.869 53.4489C104.312 52.1461 104.559 51.3294 104.608 51.1544C104.706 50.9405 105.002 50.2405 105.002 49.2683C105.002 47.8489 104.46 45.8267 101.653 43.8433C100.816 43.26 99.1911 42.1517 97.1229 40.7711L126.275 33.8295ZM110.074 56.035L108.449 63.6572L100.521 63.735C101.653 60.2544 102.638 57.2211 103.377 55.0044L110.074 56.035ZM80.3802 16.1934L121.597 32.0211L93.8728 38.6128C84.9106 32.6239 71.9103 24.0684 71.9103 24.0684L71.3686 23.6989L70.827 23.5822L80.3802 16.1934ZM10.0115 42.1128L35.618 19.6934L58.4669 24.4378L31.5801 45.7878L10.0115 42.1128ZM31.3339 51.3294L33.599 47.7516L41.9704 49.1905L31.3339 51.3294ZM69.7929 43.61L46.3531 48.3155L35.0763 46.3905L61.8647 25.1378L65.9026 25.9739C67.5769 27.0822 72.8952 30.5822 78.6074 34.3545C81.2666 36.1239 84.0242 37.9517 86.5356 39.6239L69.7929 43.61ZM86.4863 83.7044L79.2476 82.9266L83.187 66.4183L92.0016 66.3405C90.2288 71.7849 88.2591 77.9683 86.4863 83.7044ZM92.7895 63.8127L83.7287 63.91L87.028 47.4405L81.5128 44.0767L90.475 42.2683C92.5433 43.6489 94.1683 44.7572 94.9562 45.3211C96.8767 46.6822 97.3691 48.1989 97.3691 49.2878C97.3691 49.7155 97.3198 50.085 97.2214 50.3183C97.1721 50.435 97.1721 50.5322 97.1229 50.5905C97.1229 50.6489 97.0736 50.6489 97.0736 50.6489L97.0244 50.7072V50.7655C97.0736 50.7461 95.2024 56.3072 92.7895 63.8127ZM93.9713 84.3071C95.3501 79.8738 96.8274 75.1683 98.2555 70.7349C98.7479 69.1988 99.2403 67.7016 99.6835 66.2433L107.907 66.1655L103.918 85.0071C99.979 84.7349 96.5812 84.5016 93.9713 84.3071ZM142.279 77.171H142.18L136.37 85.0266V85.0655L140.014 85.4932V85.4738L145.037 78.8238L154.934 79.271L150.503 87.846C147.991 87.6905 145.529 87.5349 143.215 87.4182C130.953 86.7766 118.002 85.9405 107.759 85.2599L111.797 66.1266L140.358 65.8544L139.177 69.9377L134.449 76.2766L138.093 76.7044L142.919 70.2488L144.199 65.8349L146.76 65.8155L147.056 65.8349L147.351 70.5016L142.279 77.171ZM196.791 62.7822L136.468 63.385L152.472 44.0767L177.734 53.935L196.791 62.7822ZM207.576 36.2211L210.481 36.435L202.011 43.96C201.568 43.8628 201.075 43.7655 200.485 43.6489C200.091 43.5711 199.697 43.4739 199.253 43.3961L207.576 36.2211ZM197.727 44.7378C198.81 44.9711 199.746 45.185 200.485 45.3211L188.075 56.3655L185.613 55.2183L197.727 44.7378ZM174.287 36.9406C177.636 39.3517 184.579 41.4711 190.685 43.0655C191.965 43.3961 193.246 43.7072 194.428 43.9794L182.905 53.9544L180.59 52.8655L160.154 44.9322L169.018 41.6461L166.408 40.5572L157.446 43.8822L150.995 41.3739L163.306 36.5128L160.597 35.4433L148.237 40.3239L129.623 33.0517L158.529 26.1878C159.514 26.8489 160.499 27.5295 161.484 28.1906L151.192 30.5433L153.112 31.8461L163.503 29.4739C168.082 32.6045 172.268 35.4628 174.287 36.9406ZM164.882 27.4322C163.897 26.7517 162.863 26.0711 161.878 25.3906L197.776 16.8739L202.651 18.8573L164.882 27.4322Z" fill="white"/>
<path d="M38.1294 0.015625L22.8148 13.1795L1 8.49339V13.0628L18.5306 16.835L1 31.885V36.6878L43.7432 0.015625H38.1294Z" fill="white"/>
<path d="M218.902 90.1259V86.8203L216.391 89.8148L218.902 90.1259Z" fill="white"/>
</g>
<path d="M219.312 181.688V218.312H0.6875V181.688H219.312Z" fill="black"/>
<path d="M219.312 181.688V218.312H0.6875V181.688H219.312Z" stroke="white" stroke-width="0.625"/>
<path d="M87.0791 199.96V202.562C86.9912 202.693 86.8512 202.839 86.6592 203.002C86.4671 203.161 86.2018 203.301 85.8633 203.422C85.528 203.539 85.0951 203.598 84.5645 203.598C84.1315 203.598 83.7327 203.523 83.3682 203.373C83.0068 203.22 82.6927 202.999 82.4258 202.709C82.1621 202.416 81.957 202.061 81.8105 201.645C81.6673 201.225 81.5957 200.749 81.5957 200.219V199.667C81.5957 199.136 81.6576 198.663 81.7812 198.246C81.9082 197.829 82.0938 197.476 82.3379 197.187C82.582 196.894 82.8815 196.672 83.2363 196.522C83.5911 196.369 83.998 196.293 84.457 196.293C85.0007 196.293 85.4548 196.387 85.8193 196.576C86.1872 196.762 86.4736 197.019 86.6787 197.348C86.887 197.676 87.0205 198.051 87.0791 198.471H86.1367C86.0944 198.214 86.0098 197.979 85.8828 197.768C85.7591 197.556 85.5817 197.387 85.3506 197.26C85.1195 197.13 84.8216 197.064 84.457 197.064C84.1283 197.064 83.8434 197.125 83.6025 197.245C83.3617 197.366 83.1631 197.538 83.0068 197.763C82.8506 197.987 82.7334 198.259 82.6553 198.578C82.5804 198.897 82.543 199.257 82.543 199.657V200.219C82.543 200.629 82.5902 200.995 82.6846 201.317C82.7822 201.64 82.9206 201.915 83.0996 202.143C83.2786 202.367 83.4919 202.538 83.7393 202.655C83.9899 202.772 84.2666 202.831 84.5693 202.831C84.9046 202.831 85.1764 202.803 85.3848 202.748C85.5931 202.689 85.7559 202.621 85.873 202.543C85.9902 202.462 86.0798 202.385 86.1416 202.313V200.722H84.4961V199.96H87.0791ZM90.6973 203.598C90.3294 203.598 89.9958 203.536 89.6963 203.412C89.4001 203.285 89.1445 203.108 88.9297 202.88C88.7181 202.652 88.5553 202.382 88.4414 202.069C88.3275 201.757 88.2705 201.415 88.2705 201.044V200.839C88.2705 200.409 88.334 200.027 88.4609 199.691C88.5879 199.353 88.7604 199.066 88.9785 198.832C89.1966 198.598 89.444 198.42 89.7207 198.3C89.9974 198.179 90.2839 198.119 90.5801 198.119C90.9577 198.119 91.2832 198.184 91.5566 198.314C91.8333 198.445 92.0596 198.627 92.2354 198.861C92.4111 199.092 92.5413 199.366 92.626 199.682C92.7106 199.994 92.7529 200.336 92.7529 200.707V201.112H88.8076V200.375H91.8496V200.307C91.8366 200.072 91.7878 199.844 91.7031 199.623C91.6217 199.402 91.4915 199.219 91.3125 199.076C91.1335 198.933 90.8893 198.861 90.5801 198.861C90.375 198.861 90.1862 198.905 90.0137 198.993C89.8411 199.078 89.693 199.205 89.5693 199.374C89.4456 199.543 89.3496 199.75 89.2812 199.994C89.2129 200.238 89.1787 200.52 89.1787 200.839V201.044C89.1787 201.295 89.2129 201.531 89.2812 201.752C89.3529 201.97 89.4554 202.162 89.5889 202.328C89.7256 202.494 89.89 202.624 90.082 202.719C90.2773 202.813 90.4987 202.86 90.7461 202.86C91.0651 202.86 91.3353 202.795 91.5566 202.665C91.778 202.535 91.9717 202.361 92.1377 202.143L92.6846 202.577C92.5706 202.75 92.4258 202.914 92.25 203.07C92.0742 203.227 91.8577 203.354 91.6006 203.451C91.3467 203.549 91.0456 203.598 90.6973 203.598ZM96.0195 198.217V198.91H93.1631V198.217H96.0195ZM94.1299 196.933H95.0332V202.191C95.0332 202.37 95.0609 202.506 95.1162 202.597C95.1715 202.688 95.2432 202.748 95.3311 202.777C95.4189 202.807 95.5133 202.821 95.6143 202.821C95.6891 202.821 95.7673 202.815 95.8486 202.802C95.9333 202.785 95.9967 202.772 96.0391 202.763L96.0439 203.5C95.9723 203.523 95.8779 203.544 95.7607 203.563C95.6468 203.586 95.5085 203.598 95.3457 203.598C95.1243 203.598 94.9209 203.554 94.7354 203.466C94.5498 203.378 94.4017 203.231 94.291 203.026C94.1836 202.818 94.1299 202.538 94.1299 202.187V196.933ZM101.62 203.5H100.136L100.146 202.733H101.62C102.128 202.733 102.551 202.628 102.89 202.416C103.228 202.201 103.482 201.902 103.651 201.518C103.824 201.13 103.91 200.678 103.91 200.16V199.726C103.91 199.319 103.861 198.957 103.764 198.642C103.666 198.323 103.523 198.054 103.334 197.836C103.145 197.615 102.914 197.447 102.641 197.333C102.37 197.219 102.06 197.162 101.708 197.162H100.106V196.391H101.708C102.174 196.391 102.598 196.469 102.982 196.625C103.367 196.778 103.697 197.001 103.974 197.294C104.254 197.584 104.468 197.935 104.618 198.349C104.768 198.759 104.843 199.221 104.843 199.735V200.16C104.843 200.674 104.768 201.138 104.618 201.552C104.468 201.962 104.252 202.312 103.969 202.602C103.689 202.891 103.35 203.114 102.953 203.271C102.559 203.424 102.115 203.5 101.62 203.5ZM100.639 196.391V203.5H99.6963V196.391H100.639ZM107.104 198.217V203.5H106.195V198.217H107.104ZM106.127 196.815C106.127 196.669 106.171 196.545 106.259 196.444C106.35 196.343 106.483 196.293 106.659 196.293C106.832 196.293 106.964 196.343 107.055 196.444C107.149 196.545 107.196 196.669 107.196 196.815C107.196 196.955 107.149 197.076 107.055 197.177C106.964 197.274 106.832 197.323 106.659 197.323C106.483 197.323 106.35 197.274 106.259 197.177C106.171 197.076 106.127 196.955 106.127 196.815ZM109.457 199.047V203.5H108.554V198.217H109.433L109.457 199.047ZM111.107 198.188L111.103 199.027C111.028 199.011 110.956 199.001 110.888 198.998C110.823 198.992 110.748 198.988 110.663 198.988C110.455 198.988 110.271 199.021 110.111 199.086C109.952 199.151 109.817 199.242 109.706 199.359C109.595 199.477 109.507 199.617 109.442 199.779C109.381 199.939 109.34 200.115 109.32 200.307L109.066 200.453C109.066 200.134 109.097 199.835 109.159 199.555C109.224 199.275 109.324 199.027 109.457 198.812C109.59 198.594 109.76 198.425 109.965 198.305C110.173 198.181 110.421 198.119 110.707 198.119C110.772 198.119 110.847 198.127 110.932 198.144C111.016 198.157 111.075 198.171 111.107 198.188ZM114.037 203.598C113.669 203.598 113.336 203.536 113.036 203.412C112.74 203.285 112.484 203.108 112.27 202.88C112.058 202.652 111.895 202.382 111.781 202.069C111.667 201.757 111.61 201.415 111.61 201.044V200.839C111.61 200.409 111.674 200.027 111.801 199.691C111.928 199.353 112.1 199.066 112.318 198.832C112.536 198.598 112.784 198.42 113.061 198.3C113.337 198.179 113.624 198.119 113.92 198.119C114.298 198.119 114.623 198.184 114.896 198.314C115.173 198.445 115.399 198.627 115.575 198.861C115.751 199.092 115.881 199.366 115.966 199.682C116.05 199.994 116.093 200.336 116.093 200.707V201.112H112.147V200.375H115.189V200.307C115.176 200.072 115.128 199.844 115.043 199.623C114.962 199.402 114.831 199.219 114.652 199.076C114.473 198.933 114.229 198.861 113.92 198.861C113.715 198.861 113.526 198.905 113.354 198.993C113.181 199.078 113.033 199.205 112.909 199.374C112.785 199.543 112.689 199.75 112.621 199.994C112.553 200.238 112.519 200.52 112.519 200.839V201.044C112.519 201.295 112.553 201.531 112.621 201.752C112.693 201.97 112.795 202.162 112.929 202.328C113.065 202.494 113.23 202.624 113.422 202.719C113.617 202.813 113.839 202.86 114.086 202.86C114.405 202.86 114.675 202.795 114.896 202.665C115.118 202.535 115.312 202.361 115.478 202.143L116.024 202.577C115.91 202.75 115.766 202.914 115.59 203.07C115.414 203.227 115.198 203.354 114.94 203.451C114.687 203.549 114.385 203.598 114.037 203.598ZM119.262 202.855C119.477 202.855 119.675 202.812 119.857 202.724C120.04 202.636 120.189 202.515 120.307 202.362C120.424 202.206 120.491 202.029 120.507 201.83H121.366C121.35 202.143 121.244 202.434 121.049 202.704C120.857 202.971 120.604 203.188 120.292 203.354C119.979 203.516 119.636 203.598 119.262 203.598C118.865 203.598 118.518 203.528 118.222 203.388C117.929 203.248 117.685 203.056 117.489 202.812C117.297 202.567 117.152 202.287 117.055 201.972C116.96 201.653 116.913 201.316 116.913 200.961V200.756C116.913 200.401 116.96 200.066 117.055 199.75C117.152 199.431 117.297 199.149 117.489 198.905C117.685 198.661 117.929 198.469 118.222 198.329C118.518 198.189 118.865 198.119 119.262 198.119C119.675 198.119 120.036 198.204 120.346 198.373C120.655 198.539 120.897 198.767 121.073 199.057C121.252 199.343 121.35 199.669 121.366 200.033H120.507C120.491 199.815 120.429 199.618 120.321 199.442C120.217 199.267 120.074 199.127 119.892 199.022C119.713 198.915 119.503 198.861 119.262 198.861C118.985 198.861 118.752 198.917 118.563 199.027C118.378 199.135 118.23 199.281 118.119 199.467C118.012 199.649 117.934 199.853 117.885 200.077C117.839 200.299 117.816 200.525 117.816 200.756V200.961C117.816 201.192 117.839 201.42 117.885 201.645C117.93 201.869 118.007 202.073 118.114 202.255C118.225 202.437 118.373 202.584 118.559 202.694C118.747 202.802 118.982 202.855 119.262 202.855ZM124.594 198.217V198.91H121.737V198.217H124.594ZM122.704 196.933H123.607V202.191C123.607 202.37 123.635 202.506 123.69 202.597C123.746 202.688 123.817 202.748 123.905 202.777C123.993 202.807 124.088 202.821 124.188 202.821C124.263 202.821 124.341 202.815 124.423 202.802C124.507 202.785 124.571 202.772 124.613 202.763L124.618 203.5C124.547 203.523 124.452 203.544 124.335 203.563C124.221 203.586 124.083 203.598 123.92 203.598C123.699 203.598 123.495 203.554 123.31 203.466C123.124 203.378 122.976 203.231 122.865 203.026C122.758 202.818 122.704 202.538 122.704 202.187V196.933ZM126.635 198.217V203.5H125.727V198.217H126.635ZM125.658 196.815C125.658 196.669 125.702 196.545 125.79 196.444C125.881 196.343 126.015 196.293 126.19 196.293C126.363 196.293 126.495 196.343 126.586 196.444C126.68 196.545 126.728 196.669 126.728 196.815C126.728 196.955 126.68 197.076 126.586 197.177C126.495 197.274 126.363 197.323 126.19 197.323C126.015 197.323 125.881 197.274 125.79 197.177C125.702 197.076 125.658 196.955 125.658 196.815ZM127.846 200.917V200.805C127.846 200.424 127.901 200.071 128.012 199.745C128.122 199.416 128.282 199.132 128.49 198.891C128.699 198.646 128.951 198.458 129.247 198.324C129.543 198.188 129.875 198.119 130.243 198.119C130.614 198.119 130.948 198.188 131.244 198.324C131.544 198.458 131.798 198.646 132.006 198.891C132.217 199.132 132.379 199.416 132.489 199.745C132.6 200.071 132.655 200.424 132.655 200.805V200.917C132.655 201.298 132.6 201.651 132.489 201.977C132.379 202.302 132.217 202.587 132.006 202.831C131.798 203.072 131.545 203.261 131.249 203.397C130.956 203.531 130.624 203.598 130.253 203.598C129.882 203.598 129.548 203.531 129.252 203.397C128.956 203.261 128.702 203.072 128.49 202.831C128.282 202.587 128.122 202.302 128.012 201.977C127.901 201.651 127.846 201.298 127.846 200.917ZM128.749 200.805V200.917C128.749 201.181 128.78 201.43 128.842 201.664C128.904 201.895 128.996 202.1 129.12 202.279C129.247 202.458 129.405 202.6 129.594 202.704C129.783 202.805 130.002 202.855 130.253 202.855C130.5 202.855 130.717 202.805 130.902 202.704C131.091 202.6 131.247 202.458 131.371 202.279C131.495 202.1 131.588 201.895 131.649 201.664C131.715 201.43 131.747 201.181 131.747 200.917V200.805C131.747 200.544 131.715 200.299 131.649 200.067C131.588 199.833 131.493 199.626 131.366 199.447C131.243 199.265 131.086 199.122 130.897 199.018C130.712 198.913 130.494 198.861 130.243 198.861C129.996 198.861 129.778 198.913 129.589 199.018C129.403 199.122 129.247 199.265 129.12 199.447C128.996 199.626 128.904 199.833 128.842 200.067C128.78 200.299 128.749 200.544 128.749 200.805ZM134.691 199.345V203.5H133.788V198.217H134.643L134.691 199.345ZM134.477 200.658L134.101 200.644C134.104 200.282 134.158 199.949 134.262 199.643C134.366 199.333 134.512 199.065 134.701 198.837C134.89 198.609 135.115 198.433 135.375 198.31C135.639 198.183 135.93 198.119 136.249 198.119C136.509 198.119 136.744 198.155 136.952 198.227C137.16 198.295 137.338 198.406 137.484 198.559C137.634 198.712 137.748 198.91 137.826 199.154C137.904 199.395 137.943 199.69 137.943 200.038V203.5H137.035V200.028C137.035 199.752 136.994 199.53 136.913 199.364C136.832 199.195 136.713 199.073 136.557 198.998C136.4 198.92 136.208 198.881 135.98 198.881C135.756 198.881 135.551 198.928 135.365 199.022C135.183 199.117 135.025 199.247 134.892 199.413C134.761 199.579 134.659 199.77 134.584 199.984C134.512 200.196 134.477 200.421 134.477 200.658Z" fill="white"/>
<g filter="url(#filter0_d_118_28379)">
<path fill-rule="evenodd" clip-rule="evenodd" d="M93 128C101.837 128 109 120.837 109 112C109 103.163 101.837 96 93 96C84.1634 96 77 103.163 77 112C77 120.837 84.1634 128 93 128Z" fill="black"/>
</g>
<path d="M93 104C89.6865 104 87 106.687 87 110C87 111.305 87.4278 112.502 88.1388 113.483C88.1515 113.506 88.1535 113.532 88.168 113.555L92.168 119.555C92.3535 119.833 92.666 120 93 120C93.334 120 93.6465 119.833 93.832 119.555L97.832 113.555C97.8467 113.532 97.8485 113.506 97.8612 113.483C98.5723 112.502 99 111.305 99 110C99 106.687 96.3135 104 93 104ZM93 112C91.8955 112 91 111.104 91 110C91 108.896 91.8955 108 93 108C94.1045 108 95 108.896 95 110C95 111.104 94.1045 112 93 112Z" fill="white"/>
<defs>
<filter id="filter0_d_118_28379" x="64" y="86.25" width="58" height="58" filterUnits="userSpaceOnUse" color-interpolation-filters="sRGB">
<feFlood flood-opacity="0" result="BackgroundImageFix"/>
<feColorMatrix in="SourceAlpha" type="matrix" values="0 0 0 0 0 0 0 0 0 0 0 0 0 0 0 0 0 0 127 0" result="hardAlpha"/>
<feOffset dy="3.25"/>
<feGaussianBlur stdDeviation="6.5"/>
<feColorMatrix type="matrix" values="0 0 0 0 0.376471 0 0 0 0 0.392157 0 0 0 0 0.439216 0 0 0 0.1 0"/>
<feBlend mode="normal" in2="BackgroundImageFix" result="effect1_dropShadow_118_28379"/>
<feBlend mode="normal" in="SourceGraphic" in2="effect1_dropShadow_118_28379" result="shape"/>
</filter>
</defs>
</svg>
